<svg width="680" height="620" viewBox="0 0 680 620" xmlns="http://www.w3.org/2000/svg" style="background:#0f172a;font-family:system-ui,sans-serif;">
  <defs>
    <marker id="arrow" viewBox="0 0 10 10" refX="8" refY="5" markerWidth="6" markerHeight="6" orient="auto-start-reverse">
      <path d="M2 1L8 5L2 9" fill="none" stroke="#94a3b8" stroke-width="1.5" stroke-linecap="round" stroke-linejoin="round"/>
    </marker>
  </defs>

  <!-- USER -->
  <rect x="240" y="20" width="200" height="52" rx="8" fill="#1e293b" stroke="#475569" stroke-width="0.5"/>
  <text x="340" y="41" text-anchor="middle" dominant-baseline="central" fill="#e2e8f0" font-size="14" font-weight="600">User / Browser</text>
  <text x="340" y="59" text-anchor="middle" dominant-baseline="central" fill="#94a3b8" font-size="12">Mic input · clicks · voice</text>

  <!-- user ↔ frontend arrows -->
  <line x1="340" y1="72" x2="340" y2="104" stroke="#94a3b8" stroke-width="1" marker-end="url(#arrow)"/>
  <line x1="333" y1="104" x2="333" y2="72" stroke="#94a3b8" stroke-width="1" marker-end="url(#arrow)"/>

  <!-- CLOUD RUN BORDER -->
  <rect x="30" y="108" width="620" height="320" rx="14" fill="none" stroke="#3b82f6" stroke-width="1" stroke-dasharray="6 4" opacity="0.7"/>
  <text x="46" y="127" fill="#60a5fa" font-size="12" font-family="system-ui,sans-serif">☁  Google Cloud Run  (asia-east1) — .run.app</text>

  <!-- NEXT.JS FRONTEND -->
  <rect x="180" y="138" width="320" height="56" rx="8" fill="#134e4a" stroke="#2dd4bf" stroke-width="0.5"/>
  <text x="340" y="160" text-anchor="middle" dominant-baseline="central" fill="#ccfbf1" font-size="14" font-weight="600">Next.js Frontend (App Router)</text>
  <text x="340" y="178" text-anchor="middle" dominant-baseline="central" fill="#99f6e4" font-size="12">React UI · game state · Tailwind · Framer Motion</text>

  <!-- HOOKS ROW -->
  <rect x="56" y="216" width="140" height="52" rx="6" fill="#14532d" stroke="#4ade80" stroke-width="0.5"/>
  <text x="126" y="236" text-anchor="middle" dominant-baseline="central" fill="#dcfce7" font-size="13" font-weight="600">useGeminiLive</text>
  <text x="126" y="253" text-anchor="middle" dominant-baseline="central" fill="#86efac" font-size="11">WS session · tools</text>

  <rect x="210" y="216" width="130" height="52" rx="6" fill="#14532d" stroke="#4ade80" stroke-width="0.5"/>
  <text x="275" y="236" text-anchor="middle" dominant-baseline="central" fill="#dcfce7" font-size="13" font-weight="600">useAudioStreamer</text>
  <text x="275" y="253" text-anchor="middle" dominant-baseline="central" fill="#86efac" font-size="11">PCM 16kHz output</text>

  <rect x="354" y="216" width="130" height="52" rx="6" fill="#14532d" stroke="#4ade80" stroke-width="0.5"/>
  <text x="419" y="236" text-anchor="middle" dominant-baseline="central" fill="#dcfce7" font-size="13" font-weight="600">useSimulation</text>
  <text x="419" y="253" text-anchor="middle" dominant-baseline="central" fill="#86efac" font-size="11">Crisis · regions · tick</text>

  <rect x="498" y="216" width="130" height="52" rx="6" fill="#14532d" stroke="#4ade80" stroke-width="0.5"/>
  <text x="563" y="236" text-anchor="middle" dominant-baseline="central" fill="#dcfce7" font-size="13" font-weight="600">useVideoStreamer</text>
  <text x="563" y="253" text-anchor="middle" dominant-baseline="central" fill="#86efac" font-size="11">JPEG frames → AI</text>

  <!-- API ROUTE -->
  <rect x="210" y="292" width="260" height="52" rx="8" fill="#2e1065" stroke="#a78bfa" stroke-width="0.5"/>
  <text x="340" y="312" text-anchor="middle" dominant-baseline="central" fill="#ede9fe" font-size="14" font-weight="600">/api/generate-image</text>
  <text x="340" y="330" text-anchor="middle" dominant-baseline="central" fill="#c4b5fd" font-size="12">Next.js API Route — server-side call</text>

  <!-- frontend → hooks (dashed) -->
  <line x1="280" y1="194" x2="200" y2="216" stroke="#475569" stroke-width="0.8" stroke-dasharray="3 3" marker-end="url(#arrow)"/>
  <line x1="310" y1="194" x2="275" y2="216" stroke="#475569" stroke-width="0.8" stroke-dasharray="3 3" marker-end="url(#arrow)"/>
  <line x1="370" y1="194" x2="419" y2="216" stroke="#475569" stroke-width="0.8" stroke-dasharray="3 3" marker-end="url(#arrow)"/>
  <line x1="420" y1="194" x2="530" y2="216" stroke="#475569" stroke-width="0.8" stroke-dasharray="3 3" marker-end="url(#arrow)"/>
  <line x1="340" y1="194" x2="340" y2="292" stroke="#475569" stroke-width="0.8" stroke-dasharray="3 3" marker-end="url(#arrow)"/>

  <!-- useGeminiLive ↔ Gemini Live WebSocket path (left side) -->
  <line x1="56" y1="242" x2="30" y2="242" stroke="#94a3b8" stroke-width="1"/>
  <line x1="30" y1="242" x2="30" y2="490" stroke="#94a3b8" stroke-width="1"/>
  <line x1="30" y1="490" x2="80" y2="490" stroke="#94a3b8" stroke-width="1" marker-end="url(#arrow)"/>
  <line x1="120" y1="475" x2="56" y2="475" stroke="#94a3b8" stroke-width="1"/>
  <line x1="56" y1="475" x2="56" y2="268" stroke="#94a3b8" stroke-width="1" marker-end="url(#arrow)"/>
  <text x="10" y="370" text-anchor="middle" fill="#64748b" font-size="10" transform="rotate(-90,10,370)">WebSocket</text>

  <!-- API Route → Gemini Image path (right side) -->
  <line x1="470" y1="318" x2="652" y2="318" stroke="#94a3b8" stroke-width="1"/>
  <line x1="652" y1="318" x2="652" y2="456" stroke="#94a3b8" stroke-width="1" marker-end="url(#arrow)"/>
  <line x1="600" y1="475" x2="652" y2="475" stroke="#94a3b8" stroke-width="1"/>
  <line x1="652" y1="475" x2="652" y2="344" stroke="#94a3b8" stroke-width="1" marker-end="url(#arrow)"/>
  <text x="670" y="390" text-anchor="middle" fill="#64748b" font-size="10" transform="rotate(90,670,390)">HTTPS</text>

  <!-- GEMINI LIVE API -->
  <rect x="80" y="456" width="220" height="92" rx="8" fill="#1e3a5f" stroke="#3b82f6" stroke-width="0.8"/>
  <text x="190" y="478" text-anchor="middle" dominant-baseline="central" fill="#bfdbfe" font-size="14" font-weight="600">Gemini Live API</text>
  <text x="190" y="496" text-anchor="middle" dominant-baseline="central" fill="#93c5fd" font-size="11">gemini-2.5-flash-native-audio</text>
  <text x="190" y="512" text-anchor="middle" dominant-baseline="central" fill="#93c5fd" font-size="11">WebSocket · voice · function calls</text>
  <text x="190" y="528" text-anchor="middle" dominant-baseline="central" fill="#60a5fa" font-size="11">highlight_element · evaluate_answer</text>

  <!-- GEMINI IMAGE API -->
  <rect x="460" y="456" width="200" height="72" rx="8" fill="#431407" stroke="#fb923c" stroke-width="0.8"/>
  <text x="560" y="478" text-anchor="middle" dominant-baseline="central" fill="#fed7aa" font-size="14" font-weight="600">Gemini Image API</text>
  <text x="560" y="496" text-anchor="middle" dominant-baseline="central" fill="#fdba74" font-size="11">gemini-2.5-flash-image</text>
  <text x="560" y="512" text-anchor="middle" dominant-baseline="central" fill="#fb923c" font-size="11">Win / lose cinematic scene</text>

  <!-- LEGEND -->
  <rect x="30" y="576" width="12" height="12" rx="2" fill="#134e4a" stroke="#2dd4bf" stroke-width="0.5"/>
  <text x="48" y="584" dominant-baseline="central" fill="#94a3b8" font-size="11">Frontend</text>
  <rect x="125" y="576" width="12" height="12" rx="2" fill="#14532d" stroke="#4ade80" stroke-width="0.5"/>
  <text x="143" y="584" dominant-baseline="central" fill="#94a3b8" font-size="11">Hooks</text>
  <rect x="205" y="576" width="12" height="12" rx="2" fill="#2e1065" stroke="#a78bfa" stroke-width="0.5"/>
  <text x="223" y="584" dominant-baseline="central" fill="#94a3b8" font-size="11">API Route</text>
  <rect x="310" y="576" width="12" height="12" rx="2" fill="#1e3a5f" stroke="#3b82f6" stroke-width="0.5"/>
  <text x="328" y="584" dominant-baseline="central" fill="#94a3b8" font-size="11">Gemini Live</text>
  <rect x="420" y="576" width="12" height="12" rx="2" fill="#431407" stroke="#fb923c" stroke-width="0.5"/>
  <text x="438" y="584" dominant-baseline="central" fill="#94a3b8" font-size="11">Gemini Image</text>
  <rect x="540" y="576" width="12" height="12" rx="2" fill="#1e293b" stroke="#475569" stroke-width="0.5"/>
  <text x="558" y="584" dominant-baseline="central" fill="#94a3b8" font-size="11">User</text>
</svg>
